<svg width="36" height="36" viewBox="0 0 36 36" fill="none" xmlns="http://www.w3.org/2000/svg">
<rect x="0.5" y="0.5" width="35" height="35" rx="17.5" fill="white"/>
<rect x="0.5" y="0.5" width="35" height="35" rx="17.5" stroke="#E4E7ED"/>
<path fill-rule="evenodd" clip-rule="evenodd" d="M9.5863 22.2939H10.2431V24.5839H9.5863V22.2939Z" fill="#D93934"/>
<path fill-rule="evenodd" clip-rule="evenodd" d="M17.6097 22.2939V23.1638H15.4263V22.2939H14.7517V24.5839H15.4263V23.7141H17.6097V24.5839H18.2665V23.7141V23.1638V22.2939H17.6097Z" fill="#D93934"/>
<path fill-rule="evenodd" clip-rule="evenodd" d="M11.3967 24.5839V23.288C11.3967 23.0395 11.5919 22.8442 11.8405 22.8442H13.1541C13.4026 22.8442 13.5979 23.0395 13.5979 23.288V24.5839H14.2547V23.2525C14.2547 22.72 13.8286 22.2939 13.2961 22.2939H11.6984C11.1659 22.2939 10.7399 22.72 10.7399 23.2525V24.5839H11.3967Z" fill="#D93934"/>
<path fill-rule="evenodd" clip-rule="evenodd" d="M23.4499 24.5839V23.288C23.4499 23.0395 23.6452 22.8442 23.8937 22.8442H25.2073C25.4559 22.8442 25.6511 23.0395 25.6511 23.288V24.5839H26.3079V23.2525C26.3079 22.72 25.8819 22.2939 25.3494 22.2939H23.734C23.2014 22.2939 22.7754 22.72 22.7754 23.2525V24.5839H23.4499Z" fill="#D93934"/>
<path fill-rule="evenodd" clip-rule="evenodd" d="M21.3375 22.2939H19.7221C19.1896 22.2939 18.7635 22.72 18.7635 23.2525V23.3235V23.43V23.6253C18.7635 24.1579 19.1896 24.5839 19.7221 24.5839H21.3375C21.8701 24.5839 22.2961 24.1579 22.2961 23.6253V23.43V23.3235V23.2525C22.2783 22.72 21.8523 22.2939 21.3375 22.2939ZM21.6215 23.43V23.5898C21.6215 23.8383 21.4263 24.0336 21.1778 24.0336H19.8641C19.6156 24.0336 19.4204 23.8383 19.4204 23.5898V23.43V23.3235V23.2703C19.4204 23.0218 19.6156 22.8265 19.8641 22.8265H21.1778C21.4263 22.8265 21.6215 23.0218 21.6215 23.2703V23.3235V23.43Z" fill="#D93934"/>
<path fill-rule="evenodd" clip-rule="evenodd" d="M9.0887 23.8383V22.2939H8.44964H8.43189H8.41414V23.8206C8.41414 23.8383 8.41414 23.8561 8.39639 23.8561C8.37864 23.8738 8.32538 23.8916 8.28988 23.8383L7.66858 22.862L7.49106 22.578C7.45556 22.507 7.40231 22.4715 7.3313 22.4715C7.26029 22.4715 7.20704 22.5247 7.17154 22.578L6.99402 22.862L6.35497 23.8738C6.31947 23.9271 6.26621 23.9093 6.24846 23.8916C6.23071 23.8738 6.23071 23.8561 6.23071 23.8561V22.3294H6.21296H6.19521H5.55615V23.8738V23.8916C5.55615 24.4064 5.84018 24.6194 6.26621 24.6194C6.46148 24.6194 6.63899 24.5129 6.76325 24.3354L7.26029 23.5721C7.27805 23.5543 7.2958 23.5365 7.3313 23.5365C7.3668 23.5365 7.38455 23.5543 7.40231 23.5721L7.89935 24.3354C8.00586 24.5129 8.18337 24.6194 8.39639 24.6194C8.80467 24.5839 9.0887 24.3531 9.0887 23.8383Z" fill="#D93934"/>
<path fill-rule="evenodd" clip-rule="evenodd" d="M30.3015 23.1638H27.8163V23.6963H29.6269C29.5737 23.8916 29.3961 24.0336 29.2009 24.0336H27.8873C27.6387 24.0336 27.4435 23.8383 27.4435 23.5898V23.43V23.2703C27.4435 23.0218 27.6387 22.8265 27.8873 22.8265H27.9938H29.1831H30.195C30.0352 22.507 29.7157 22.2939 29.3429 22.2939H27.7275C27.195 22.2939 26.7689 22.72 26.7689 23.2525V23.3235V23.43V23.6253C26.7689 24.1579 27.195 24.5839 27.7275 24.5839H29.3429C29.8399 24.5839 30.2482 24.1934 30.2837 23.7141L30.3015 23.1638Z" fill="#D93934"/>
<path fill-rule="evenodd" clip-rule="evenodd" d="M26.6627 17.8918C26.2899 18.6906 25.4734 19.2232 24.5503 19.2232C23.9645 19.2232 23.3965 18.9924 22.8462 18.6196C20.6095 17.0575 18.7456 12.8682 18 10.9688C17.2544 12.8682 15.3905 17.0575 13.1538 18.6196C12.6035 18.9924 12.0355 19.2232 11.4497 19.2232C10.5266 19.2232 9.71006 18.6906 9.33728 17.8918H3C4.43787 19.6315 6.49704 20.7321 9.0355 20.7321C11.574 20.7321 13.6331 19.9332 15.0355 18.6196H18H20.9645C22.3669 19.9332 24.426 20.7321 26.9645 20.7321C29.503 20.7321 31.5621 19.6315 33 17.8918H26.6627Z" fill="#D93934"/>
</svg>
