<svg width="64" height="30" viewBox="0 0 64 30" fill="none" xmlns="http://www.w3.org/2000/svg">
<path fill-rule="evenodd" clip-rule="evenodd" d="M14.0497 24.1606H15.4509V29.0458H14.0497V24.1606Z" fill="white"/>
<path fill-rule="evenodd" clip-rule="evenodd" d="M31.1667 24.1606V26.0163H26.5088V24.1606H25.0697V29.0458H26.5088V27.1902H31.1667V29.0458H32.5679V27.1902V26.0163V24.1606H31.1667Z" fill="white"/>
<path fill-rule="evenodd" clip-rule="evenodd" d="M17.9125 29.0458V26.2814C17.9125 25.7512 18.329 25.3346 18.8592 25.3346H21.6616C22.1918 25.3346 22.6083 25.7512 22.6083 26.2814V29.0458H24.0095V26.2056C24.0095 25.0695 23.1006 24.1606 21.9645 24.1606H18.5563C17.4202 24.1606 16.5113 25.0695 16.5113 26.2056V29.0458H17.9125Z" fill="white"/>
<path fill-rule="evenodd" clip-rule="evenodd" d="M43.626 29.0458V26.2814C43.626 25.7512 44.0426 25.3346 44.5727 25.3346H47.3751C47.9053 25.3346 48.3219 25.7512 48.3219 26.2814V29.0458H49.723V26.2056C49.723 25.0695 48.8142 24.1606 47.6781 24.1606H44.2319C43.0958 24.1606 42.187 25.0695 42.187 26.2056V29.0458H43.626Z" fill="white"/>
<path fill-rule="evenodd" clip-rule="evenodd" d="M39.1195 24.1606H35.6733C34.5372 24.1606 33.6284 25.0695 33.6284 26.2056V26.3571V26.5843V27.0009C33.6284 28.137 34.5372 29.0458 35.6733 29.0458H39.1195C40.2556 29.0458 41.1644 28.137 41.1644 27.0009V26.5843V26.3571V26.2056C41.1266 25.0695 40.2177 24.1606 39.1195 24.1606ZM39.7254 26.5843V26.9251C39.7254 27.4553 39.3088 27.8719 38.7787 27.8719H35.9763C35.4461 27.8719 35.0295 27.4553 35.0295 26.9251V26.5843V26.3571V26.2435C35.0295 25.7133 35.4461 25.2967 35.9763 25.2967H38.7787C39.3088 25.2967 39.7254 25.7133 39.7254 26.2435V26.3571V26.5843Z" fill="white"/>
<path fill-rule="evenodd" clip-rule="evenodd" d="M12.9893 27.4553V24.1606H11.626H11.5882H11.5503V27.4174C11.5503 27.4553 11.5503 27.4932 11.5124 27.4932C11.4745 27.5311 11.3609 27.5689 11.2852 27.4553L9.95976 25.3725L9.58106 24.7666C9.50532 24.6151 9.39171 24.5393 9.24023 24.5393C9.08875 24.5393 8.97514 24.653 8.8994 24.7666L8.5207 25.3725L7.15739 27.5311C7.08165 27.6447 6.96804 27.6068 6.93017 27.5689C6.8923 27.5311 6.8923 27.4932 6.8923 27.4932V24.2364H6.85443H6.81656H5.45325V27.5311V27.5689C5.45325 28.6672 6.05916 29.1216 6.96804 29.1216C7.38461 29.1216 7.76331 28.8944 8.0284 28.5157L9.08875 26.8873C9.12662 26.8494 9.16449 26.8115 9.24023 26.8115C9.31597 26.8115 9.35384 26.8494 9.39171 26.8873L10.4521 28.5157C10.6793 28.8944 11.058 29.1216 11.5124 29.1216C12.3834 29.0459 12.9893 28.5535 12.9893 27.4553Z" fill="white"/>
<path fill-rule="evenodd" clip-rule="evenodd" d="M58.2437 26.0163H52.942V27.1524H56.8047C56.6911 27.5689 56.3124 27.8719 55.8958 27.8719H53.0934C52.5633 27.8719 52.1467 27.4553 52.1467 26.9251V26.5843V26.2435C52.1467 25.7133 52.5633 25.2967 53.0934 25.2967H53.3207H55.8579H58.0165C57.6757 24.6151 56.994 24.1606 56.1988 24.1606H52.7526C51.6165 24.1606 50.7076 25.0695 50.7076 26.2056V26.3571V26.5843V27.0009C50.7076 28.137 51.6165 29.0458 52.7526 29.0458H56.1988C57.2591 29.0458 58.1301 28.2127 58.2059 27.1902L58.2437 26.0163Z" fill="white"/>
<path fill-rule="evenodd" clip-rule="evenodd" d="M50.4805 14.7692C49.6852 16.4734 47.9432 17.6095 45.974 17.6095C44.7243 17.6095 43.5124 17.1172 42.3385 16.3219C37.5669 12.9893 33.5905 4.05207 32 0C30.4095 4.05207 26.4331 12.9893 21.6615 16.3219C20.4876 17.1172 19.2757 17.6095 18.026 17.6095C16.0568 17.6095 14.3148 16.4734 13.5195 14.7692H0C3.06746 18.4805 7.46036 20.8284 12.8757 20.8284C18.2911 20.8284 22.684 19.1243 25.6757 16.3219H32H38.3243C41.316 19.1243 45.7089 20.8284 51.1243 20.8284C56.5396 20.8284 60.9325 18.4805 64 14.7692H50.4805Z" fill="white"/>
</svg>
