<svg width="166" height="58" viewBox="0 0 166 58" fill="none" xmlns="http://www.w3.org/2000/svg">
<path d="M28.647 39.6611H26.8242V45.9543H28.647V39.6611Z" fill="white"/>
<path fill-rule="evenodd" clip-rule="evenodd" d="M49.1477 39.6611V42.0563H43.0401V39.6611H41.2173V45.9543H43.0401V43.5356H49.1477V45.9543H50.9705V43.5356V42.0563V39.6611H49.1477Z" fill="white"/>
<path fill-rule="evenodd" clip-rule="evenodd" d="M31.8904 45.9543V42.3616C31.8904 41.6806 32.4349 41.1405 33.1214 41.1405H36.7434C37.4299 41.1405 37.9744 41.6806 37.9744 42.3616V45.9543H39.7972V42.2677C39.7972 40.8118 38.6135 39.6377 37.1458 39.6377H32.6953C31.2276 39.6377 30.0439 40.8118 30.0439 42.2677V45.9308H31.8904V45.9543Z" fill="white"/>
<path fill-rule="evenodd" clip-rule="evenodd" d="M65.3399 45.9543V42.3616C65.3399 41.6806 65.8844 41.1405 66.5709 41.1405H70.1928C70.8793 41.1405 71.4238 41.6806 71.4238 42.3616V45.9543H73.2466V42.2677C73.2466 40.8118 72.063 39.6377 70.5953 39.6377H66.1211C64.6534 39.6377 63.4697 40.8118 63.4697 42.2677V45.9308H65.3399V45.9543Z" fill="white"/>
<path fill-rule="evenodd" clip-rule="evenodd" d="M59.4693 39.6611H54.9951C53.5274 39.6611 52.3438 40.8352 52.3438 42.2911V42.5024V42.8077V43.3243C52.3438 44.7802 53.5274 45.9543 54.9951 45.9543H59.4693C60.937 45.9543 62.1206 44.7802 62.1206 43.3243V42.8077V42.5024V42.2676C62.1206 40.8352 60.937 39.6611 59.4693 39.6611ZM60.2978 42.8077V43.2538C60.2978 43.9348 59.7534 44.4749 59.0668 44.4749H55.4212C54.7347 44.4749 54.1902 43.9348 54.1902 43.2538V42.8077V42.5024V42.385C54.1902 41.704 54.7347 41.164 55.4212 41.164H59.0432C59.7297 41.164 60.2742 41.704 60.2742 42.385V42.5024V42.8077H60.2978Z" fill="white"/>
<path fill-rule="evenodd" clip-rule="evenodd" d="M25.4512 43.9113V39.6611H23.6994H23.6758H23.6284V43.8879C23.6284 43.9113 23.6284 43.9818 23.6048 44.0053C23.5574 44.0522 23.4154 44.1227 23.3207 43.9818L21.5452 41.2109L21.0481 40.436C20.9534 40.2717 20.7877 40.1543 20.5983 40.1308C20.4089 40.1308 20.2432 40.2482 20.1485 40.436L19.6514 41.2109L17.8759 43.9818C17.7812 44.1227 17.6392 44.0522 17.5918 44.0053C17.5682 43.9818 17.5682 43.9113 17.5682 43.8879V39.6611H17.5208H17.4972H15.7454V43.9113V43.9348C15.7454 45.3437 16.5029 45.9543 17.7102 45.9543C18.2784 45.9543 18.7518 45.649 19.0832 45.1794L20.4563 43.0425C20.5036 42.9721 20.5746 42.9251 20.6456 42.9251C20.7167 42.9251 20.7877 42.9721 20.835 43.0425L22.2081 45.1794C22.5158 45.649 23.0129 45.9543 23.5811 45.9543C24.7647 45.9543 25.5459 45.3437 25.5459 43.9348C25.4512 43.9348 25.4512 43.9113 25.4512 43.9113Z" fill="white"/>
<path fill-rule="evenodd" clip-rule="evenodd" d="M84.3968 42.0563H77.508V43.5357H82.5503C82.4083 44.0757 81.9348 44.4515 81.343 44.4515H77.721C77.0345 44.4515 76.49 43.9114 76.49 43.2304V42.7843V42.3381C76.49 41.6571 77.0345 41.117 77.721 41.117H78.0288H81.343H84.16C83.7339 40.2482 82.8344 39.6377 81.7691 39.6377H77.2949C75.8272 39.6377 74.6436 40.8118 74.6436 42.2677V42.479V42.7843V43.3009C74.6436 44.7567 75.8272 45.9308 77.2949 45.9308H81.7691C83.1658 45.9308 84.3021 44.8741 84.3968 43.5357V42.0563Z" fill="white"/>
<path fill-rule="evenodd" clip-rule="evenodd" d="M41.9749 29.5399C38.0689 33.1327 32.3401 35.3399 25.3092 35.3399C18.2547 35.3399 12.5259 32.3108 8.52515 27.5205H26.1378C27.1794 29.7043 29.4283 31.2071 32.0086 31.2071C33.6184 31.2071 35.2045 30.5731 36.7195 29.5165H41.9749V29.5399Z" fill="white"/>
<path fill-rule="evenodd" clip-rule="evenodd" d="M50.213 29.5398H41.9749H36.7195C42.9455 25.2191 48.1061 13.6896 50.213 8.45312C52.2962 13.713 57.4806 25.2191 63.7066 29.5398H58.4512H50.213Z" fill="white"/>
<path fill-rule="evenodd" clip-rule="evenodd" d="M58.4512 29.5399C62.3572 33.1327 68.086 35.3399 75.1169 35.3399C82.1714 35.3399 87.9002 32.3108 91.901 27.5205H74.2883C73.2467 29.7043 70.9978 31.2071 68.4175 31.2071C66.8077 31.2071 65.2216 30.5731 63.7066 29.5165H58.4512V29.5399Z" fill="white"/>
<path d="M120.877 23.4805H100.376V26.1574H120.877V23.4805Z" fill="white"/>
<path d="M98.7661 30.9707V33.6476H106.839L100.636 43.4865C100.21 44.1675 100.352 45.0128 100.92 45.5294C101.157 45.7877 101.512 45.9521 101.891 45.9521H119.267C119.291 45.9521 119.338 45.9521 119.362 45.9521C119.622 45.9286 119.882 45.8582 120.119 45.7173C120.877 45.2476 121.113 44.2614 120.64 43.51L116.118 36.3246H112.307L116.686 43.2752H104.59L110.65 33.6476H122.51V30.9707H111.62H98.7661Z" fill="white"/>
<path d="M152.575 33.6489V30.9719H140.478L142.845 27.2148H139.034L136.666 30.9719H128.854V33.6489H134.986L127.245 45.9533H131.056L138.797 33.6489H140.667L134.465 43.4877C133.991 44.2391 134.228 45.2254 134.986 45.695C135.246 45.8594 135.53 45.9298 135.814 45.9298H150.941C150.989 45.9298 151.012 45.9298 151.036 45.9298C151.296 45.9063 151.557 45.8359 151.793 45.695C152.551 45.2254 152.788 44.2391 152.314 43.4877L148.811 37.9225H144.999L148.361 43.2764H138.395L144.455 33.6489H152.575Z" fill="white"/>
<path d="M132.074 26.6975H149.332V28.8344H152.575V25.6174C152.575 24.725 151.865 24.0206 150.965 24.0206H143.129L142.111 22.4238H138.3L139.318 24.0206H130.464C129.565 24.0206 128.854 24.7485 128.854 25.6174V28.8344H132.098V26.6975H132.074Z" fill="white"/>
</svg>
