<svg width="16" height="16" viewBox="0 0 16 16" fill="none" xmlns="http://www.w3.org/2000/svg">
<g clip-path="url(#clip0_54_756)">
<path d="M9.73329 5.33359H14C14.3536 5.33359 14.6927 5.47407 14.9428 5.72412C15.1928 5.97417 15.3333 6.31331 15.3333 6.66693V8.06959C15.3335 8.24384 15.2995 8.41642 15.2333 8.57759L13.17 13.5876C13.1196 13.7097 13.0341 13.8142 12.9243 13.8876C12.8145 13.9611 12.6854 14.0003 12.5533 14.0003H1.33329C1.15648 14.0003 0.986912 13.93 0.861888 13.805C0.736864 13.68 0.666626 13.5104 0.666626 13.3336V6.66693C0.666626 6.49012 0.736864 6.32055 0.861888 6.19552C0.986912 6.0705 1.15648 6.00026 1.33329 6.00026H3.65463C3.76136 6.00029 3.86653 5.97469 3.96132 5.92562C4.0561 5.87654 4.13771 5.80543 4.19929 5.71826L7.83463 0.566928C7.88058 0.501803 7.94835 0.455302 8.02565 0.435855C8.10295 0.416408 8.18466 0.425303 8.25596 0.460928L9.46529 1.06559C9.80563 1.2357 10.0775 1.51714 10.2358 1.86314C10.394 2.20914 10.4292 2.59888 10.3353 2.96759L9.73329 5.33359ZM4.66663 7.05893V12.6669H12.1066L14 8.06959V6.66693H9.73329C9.53023 6.6669 9.32985 6.62049 9.14745 6.53123C8.96504 6.44198 8.80544 6.31224 8.68081 6.15192C8.55618 5.9916 8.46981 5.80492 8.4283 5.60614C8.38679 5.40736 8.39124 5.20173 8.44129 5.00493L9.04329 2.63959C9.06213 2.56581 9.05514 2.4878 9.02349 2.41855C8.99183 2.34929 8.93741 2.29296 8.86929 2.25893L8.42863 2.03893L5.28863 6.48693C5.12196 6.72293 4.90863 6.91626 4.66663 7.05893ZM3.33329 7.33359H1.99996V12.6669H3.33329V7.33359Z" fill="#83878F"/>
</g>
<defs>
<clipPath id="clip0_54_756">
<rect width="16" height="16" fill="white"/>
</clipPath>
</defs>
</svg>
